<svg xmlns="http://www.w3.org/2000/svg" viewBox="0 0 240 240"  xmlns:v="https://vecta.io/nano"><path d="M192.778 212.538h-150.7v-133.1h150.7z" fill="#e35500"/><g fill="#f0ab00"><path d="M192.778 179.3h-150.7V146h150.7z" opacity=".4"/><path d="M192.778 146.067h-150.7v-33.3h150.7z" opacity=".7"/><path d="M192.778 112.724h-150.7v-33.3h150.7z"/></g><path d="M168.5 95.5l-30.7-60.2c-3.6-7-10.6-11.3-18.4-11.3h-.2a20.62 20.62 0 0 0-18.4 11.6L71.5 95.5H4.1L19.9 216h200.3l15.7-120.5h-67.4zm-63.2-57.7c2.7-5.4 7.9-8.7 13.9-8.8h.1c6 0 11.2 3.2 13.9 8.5l29.3 57.3H77.4l27.9-57zM16.4 150.7h23.2v20.1H19l-2.6-20.1zm106.1-30.1v-20.1h32.6v20.1h-32.6zm32.7 5v20.1h-32.6v-20.1h32.6zm-37.7-5H84.8v-20.1h32.6v20.1zm0 5v20.1H84.8v-20.1h32.7zm0 25.1v20.1H84.8v-20.1h32.7zm0 25.1v20.1H84.8v-20.1h32.7zm5 0h32.6v20.1h-32.6v-20.1zm0-5v-20.1h32.6v20.1h-32.6zm37.7-20.1h30.1v20.1h-30.1v-20.1zm0-5v-20.1h30.1v20.1h-30.1zm0-25.1v-20.1h30.1v20.1h-30.1zm-80.4 0H44.7v-20.1h35.2v20.1zm0 5v20.1H44.7v-20.1h35.1zm-40.2 20.1H15.8l-2.6-20.1h26.5v20.1zm5.1 5h35.2v20.1H44.7v-20.1zm35.1 25.1v20.1H44.7v-20.1h35.1zm0 25.1v10H44.7v-10h35.1zm5 0h32.6v10H84.8v-10zm37.7 0h32.6v10h-32.6v-10zm37.7 0h30.1v10h-30.1v-10zm0-5v-20.1h30.1v20.1h-30.1zm35.1-20.1h25l-2.6 20.1h-22.4v-20.1zm0-5v-20.1h28.3l-2.6 20.1h-25.7zm0-25.1v-20.1h31.5l-2.7 20.3v-.3h-28.8zm0-25.1v-20.1h34.8l-2.6 20.1h-32.2zM39.6 100.5v20.1H12.5l-2.6-20.1h29.7zm-19.9 75.3h20v20.1H22.3l-2.6-20.1zm3.3 25.1h16.7v10H24.3l-1.3-10zM195.3 211v-10H217l-1.3 10h-20.4z"/></svg>