<svg xmlns="http://www.w3.org/2000/svg" viewBox="0 0 240 240"  xmlns:v="https://vecta.io/nano"><path d="M176.7 55.3h51.6v165.2h-51.6z" fill="#e35500"/><g fill="#f0ab00"><path d="M176.7 96.6h51.6v41.3h-51.6z" opacity=".4"/><path d="M176.7 137.9h51.6v41.3h-51.6z" opacity=".7"/><path d="M176.7 179.2h51.6v41.3h-51.6z"/></g><path d="M238.5 16.5c-.3-.6-1.2-2.1-3.7-2.1h-64.2c-1.7 0-3 .7-3.7 2.1-.6 1.3-.4 2.8.7 4.2l7.7 9.7c.5.6 1 2.2 1 3v22.4h5.2V33.3c0-2-.9-4.6-2.2-6.2l-6-7.5h58.5l-6.3 7.5c-1.3 1.6-2.3 4.2-2.3 6.2v187.1h-26.1v-14.6c0-1.8-.6-4.4-1.5-6.1L162 134.2c-.5-.9-.9-2.7-.9-3.7V89.4c0-.7.5-2.1 1.1-2.6l4.9-5c1.8-1.8 1.3-3.5 1.1-4.1-.3-.6-1.2-2.1-3.7-2.1h-42.2c-2.5 0-3.4 1.5-3.7 2.1s-.7 2.3 1 4.1l4.6 4.9c.5.6 1.1 1.9 1.1 2.7v41.1c0 1-.4 2.8-.9 3.7l-7.7 14.9-21.4-42.2c-.5-.9-.9-2.7-.9-3.7V51.5c0-.8.5-2.2 1.1-2.8l6.7-7.4c1.7-1.8 1.2-3.5.9-4.1s-1.2-2.1-3.7-2.1H42.9c-2.5 0-3.4 1.5-3.7 2.1s-.8 2.3.8 4.1l6.3 7.3c.5.6 1.1 2.1 1.1 2.9v51.6c0 1-.4 2.8-.9 3.7L2.6 193.5c-.8 1.6-1.4 4.2-1.4 6.1v20.9c0 2.8 2.3 5.2 5.2 5.2h217c2.8 0 5.2-2.3 5.2-5.2V33.3c0-.8.5-2.3 1.1-2.9l8.2-9.8c1.4-1.8.9-3.5.6-4.1zM6.3 199.5c0-1 .4-2.8.9-3.7l43.9-86.6c.8-1.6 1.4-4.2 1.4-6.1V51.5c0-2-1-4.7-2.3-6.2l-4.3-5H96l-4.5 5c-1.4 1.5-2.4 4.2-2.4 6.2v51.6c0 1.8.6 4.4 1.4 6.1l23.1 45.5-23.3 45.1c-.8 1.6-1.5 4.2-1.5 6.1v14.6H6.2l.1-21zm129.1 20.9H94.1v-14.6c0-1 .4-2.8.9-3.7l21.6-41.7 17.9 35.4c.5.9.9 2.7.9 3.7v20.9zm-129.1 0H3.7h2.6zm134.2 0v-20.9c0-1.8-.6-4.4-1.4-6.1l-19.6-38.7 9.4-18.2c.8-1.6 1.5-4.2 1.5-6.1v-41c0-2.1-1-4.7-2.5-6.2l-2.3-2.4h35.2l-2.4 2.4c-1.5 1.5-2.5 4.1-2.5 6.2v41.1c0 1.8.6 4.4 1.5 6.1l33.9 65.6c.5.9.9 2.7.9 3.7v14.6l-51.7-.1z"/></svg>