<svg xmlns="http://www.w3.org/2000/svg" viewBox="0 0 224 124"  xmlns:v="https://vecta.io/nano"><path d="M0 92h22.76a24.37 24.37 0 0 0-7.53 8H0v4h17.62l.56-1.08A20.35 20.35 0 0 1 36 92a20.35 20.35 0 0 1 17.82 10.92l.56 1.08h115.24l.56-1.08a20 20 0 0 1 35.64 0l.56 1.08H224v-4h-15.23a24.37 24.37 0 0 0-7.53-8H224v-4H0zm174.76 0a24.37 24.37 0 0 0-7.53 8H56.77a24.37 24.37 0 0 0-7.53-8zm28.9-72H164v60h60V56zM180 24h21.33l18.1 32H180zm-12 0h8v32h-8zm52 52h-52V60h52zM36 100a12 12 0 1 0 12 12 12 12 0 0 0-12-12zm0 20a8 8 0 1 1 8-8 8 8 0 0 1-8 8zm152-20a12 12 0 1 0 12 12 12 12 0 0 0-12-12zm0 20a8 8 0 1 1 8-8 8 8 0 0 1-8 8z"/><path d="M0 80V0h156v80z" fill="#008fd3"/><g fill="#f0ab00"><path d="M0 80V60h156v20z"/><path d="M0 60V40h156v20z" opacity=".7"/><path d="M0 40V20h156v20z" opacity=".4"/></g></svg>