<svg xmlns="http://www.w3.org/2000/svg" viewBox="0 0 240 240"  xmlns:v="https://vecta.io/nano"><path d="M201.104 42.504v45.6h-162.2v-45.6z" fill="#e35500"/><g fill="#f0ab00"><path d="M160.767 42.44v45.6h-40.3v-45.6z" opacity=".4"/><path d="M120.46 42.446v45.6h-40.3v-45.6z" opacity=".7"/><path d="M80.246 42.462v45.6h-41.3v-45.6z"/></g><path d="M185.9 88.1V40.5h-.2C183.9 18.7 166 1.9 144.1 1.9c-8.4 0-16.3 2.5-22.8 6.8-6.5-4.3-14.4-6.8-22.8-6.8-22 0-39.8 16.7-41.6 38.6h-.2v2h5.2C62.7 22.5 78.6 7 98.5 7c6.7 0 13 1.8 18.5 5-8.1 7-13.5 17-14.5 28.5h-.2v47.6H18.6v147h202.8v-147h-35.5zM56.6 93.2h5l-18 18-18-18h31zm-32.9 5.2l17.7 17.7v92.6l-17.7 17.7v-128zm3.6 131.7l17-17 17 17h-34zm36.9-4.2l-17.7-17.7v-92.6l17.7-17.7v128zm43.1-180.8l.1-2c.3-11.5 5.7-21.6 13.9-28.1 8.1 6.4 13.4 16.3 13.9 27.5h5.2v-2h-.2c-1-11.5-6.4-21.6-14.5-28.5 5.4-3.2 11.7-5 18.5-5 20 0 36.1 15.9 36.7 36.1l.1 1.1v43.9h-73.7v-43zm109 185h-147V93.2h147v136.9z"/></svg>