<svg xmlns="http://www.w3.org/2000/svg" viewBox="0 0 240 240"  xmlns:v="https://vecta.io/nano"><path d="M72.5 123.3c.1 0 .2 0 .2-.1.2-.1.4-.1.7-.2-.2.1-.3.3-.5.4-.1.1-.3.2-.4.4v-.5zm-9.6 16.9H24.5v.5a17.59 17.59 0 0 0 .6 4.6 19.59 19.59 0 0 0 9 12 18.85 18.85 0 0 0 9.7 2.7h.3c3.7-.1 7.1-1.2 10.1-3.1 5.3-3.4 8.8-9.4 8.8-16.2 0-.2-.1-.3-.1-.5zM34 135.9h-8.9c1.3-5 4.5-9.2 8.9-11.7 2.9-1.7 6.2-2.7 9.7-2.7h.3c1.3 0 2.5.2 3.7.4 1.7.4 3.3 1 4.8 1.7.5.3 1.1.6 1.6.9 4 2.6 7 6.6 8.2 11.3H34zm74.1 4.3H72.4v10.5c1.7 2.8 4.1 5.1 7 6.8 2.8 1.6 6 2.5 9.5 2.5h.6c3.7-.1 7.2-1.3 10.1-3.2 5.2-3.5 8.6-9.3 8.6-16 0-.3-.1-.4-.1-.6zm-28.7-4.3h-7v-5.1c1.7-2.8 4.1-5.1 7-6.8 2.8-1.6 6-2.5 9.5-2.5h.6c3.7.1 7.2 1.3 10.1 3.2 3.9 2.6 6.8 6.5 8 11.2H79.4zm-2.5-51.8c-1.4-.8-2.8-1.5-4.4-2V107h12.3c.8-2.1 1.2-4.3 1.2-6.6 0-6.9-3.7-12.9-9.1-16.3zm0 27.2h5.7c-.1.1-.1.2-.2.3a18.48 18.48 0 0 1-3.6 3.8c-.6.5-1.2.9-1.9 1.3-1.4.8-2.8 1.5-4.4 2v-7.5h4.4zm-10.1 0h1.4v8.3c-.4 0-.9.1-1.4.1h-.1c-3.7 0-7.1-1-10-2.8-2.3-1.4-4.3-3.3-5.9-5.5h16zm0-29.8h1.4v25.4H48.7c-.8-2.1-1.2-4.3-1.2-6.6 0-6.1 2.9-11.6 7.4-15.1.6-.5 1.2-.9 1.9-1.3.8-.5 1.6-.9 2.4-1.3 1.2-.5 2.5-.9 3.8-1.2h3.8zm24.6-4.3c-.3-.3-.7-.5-1.1-.8-2.9-1.9-6.3-3.1-10.1-3.2h-.6c-2.8 0-5.4.6-7.8 1.7-.6.3-1.1.5-1.6.8h0-.1c-.1 0-.1.1-.2.1-.6.3-1.1.7-1.6 1.1h.2c.6 0 1.1.1 1.7.2.2 0 .3.1.5.1h20.7zm4.9 6.5c-2.7 2.6-4.7 5.9-5.9 9.5l-.6 2.2c-1.2-5.6-4.5-10.5-9-13.9h14.1l1.4 2.2zm-6.5 21.7c.1.5.3 1.1.4 1.6h-.8c.1-.5.2-1 .4-1.6zm32.9-21.5c-1.9-1.2-4-2-6.3-2.4h-7.3c-1.2.2-2.4.6-3.5 1-.1 0-.2.1-.3.1-1 .4-1.9.9-2.7 1.4-.4.2-.7.5-1 .7-.2.1-.4.3-.5.4-4.5 3.5-7.5 9-7.5 15.2 0 2.3.4 4.5 1.2 6.6H131c.2-.6.4-1.3.6-1.9v-9.3c-1.4-4.9-4.6-9.2-8.9-11.8zm0 27.4h5.9c-.1.1-.1.2-.2.3a18.48 18.48 0 0 1-3.6 3.8c-.7.5-1.4 1-2.1 1.4-2.9 1.7-6.3 2.8-9.9 2.8h-.2c-3.7 0-7.1-1.1-10.1-3-2-1.3-3.8-3-5.3-4.9-.1-.2-.2-.3-.3-.5h25.8zm15.1-34.1a15.26 15.26 0 0 0-1.6-1.1c-2.9-1.8-6.4-2.9-10.1-2.9-3.3 0-6.3.8-9 2.3l-2 1.2c-.1.1-.2.1-.3.2.4 0 .9.1 1.3.2.2 0 .5.1.7.1h21zm4.7 6.3a24.05 24.05 0 0 0-6.4 10.6c-.1.4-.3.9-.4 1.3V81.5h5.5l1.3 2zm-15.7-2h4.6V86c-1.3-1.6-2.8-3.2-4.6-4.5zm41.7 2.3c-1.9-1.1-3.9-1.9-6.1-2.3h-7.3c-1.3.3-2.6.6-3.7 1.1-1 .4-2 1-3 1.6-.3.2-.5.4-.8.5-4.8 3.5-8 9.2-8 15.6 0 2.3.4 4.5 1.2 6.6H177c.1-.2.2-.5.3-.7.6-1.8.9-3.8.9-5.9-.1-7-4-13.2-9.7-16.5zm0 27.5h6.2c-.1.1-.1.2-.2.3a18.48 18.48 0 0 1-3.6 3.8l-1.2.9c-.4.3-.8.5-1.2.7-2.8 1.7-6.1 2.6-9.6 2.6h-.4c-3.7-.1-7.1-1.2-10.1-3.1a22.34 22.34 0 0 1-5-4.7c-.1-.2-.2-.3-.3-.5h25.4zm-51.9 12.4c-1.2.2-2.5.3-3.8.3-.7 0-1.3 0-2-.1a23.76 23.76 0 0 1-3.7-.6c-1.4-.3-2.8-.8-4.1-1.4a11.51 11.51 0 0 1 1.7 1.4c2.6 2.4 4.7 5.4 6 8.7.2.4.3.9.5 1.3.1.2.2.5.2.7.1-.2.1-.5.2-.7 1.1-3.3 2.9-6.3 5.3-8.8l1.2-1.2c-.4.2-1 .3-1.5.4zm-5.1 23.7c.1.4.2.7.3 1.1-.3.2-.6.5-1 .7.3-.7.5-1.2.7-1.8zm-20.8-30.9c1.1-.6 2.3-1.1 3.6-1.5.3.3.5.7.8 1 1.1 1.3 2.3 2.4 3.7 3.4-2.5-1.1-5.2-1.8-8-2.1v-.8zm45.1-9.5h.4v-.2c-.1-.5-.3-.9-.4-1.4v1.6zm17.5 33.2h-17.5v19.7c3.4-.3 6.6-1.5 9.2-3.3 5.1-3.5 8.4-9.3 8.4-15.9 0-.2-.1-.3-.1-.5zm-8.3-4.3h-9.2v-14.3c3.4.3 6.6 1.5 9.2 3.3 3.8 2.6 6.5 6.5 7.7 11H145zm-20.1-12.1c2-1.1 4.2-1.8 6.6-2.2v14.2h-16c1.4-5.1 4.8-9.4 9.4-12zm0 16.4h6.6v19.6c-2.3-.3-4.6-1.1-6.6-2.2-6-3.3-10-9.6-10-16.9v-.5h10zm34.9-16.3h-.9c-1.9 0-3.8-.2-5.6-.7-1.2-.3-2.4-.7-3.5-1.2-3.3-1.4-6.3-3.6-8.6-6.2l-.1-.1c-.5.2-.9.4-1.4.7v1.4c3.8.9 7.2 2.7 10.1 5.3.1.1.2.2.3.2 3 2.7 5.2 6.2 6.5 10.1h.5c.7-2 1.6-3.9 2.8-5.7 1-1.5 2.1-2.9 3.4-4.1a21.59 21.59 0 0 1-3.5.3zm-2.2 26c.1.1.1.3.2.4a13.9 13.9 0 0 1-2.8 1.2c0-.1.1-.1.1-.2.7-1.3 1.2-2.6 1.6-4.1.3 1 .6 1.9.9 2.7zm25.7-72.7c-.2-.2-.5-.3-.7-.5l-1.8-1.2c-.5-.3-1.1-.6-1.7-.8-1.1-.5-2.3-.9-3.6-1.1h-.1l-1.8-.3h-2c-3.3 0-6.4.9-9.1 2.3-.7.4-1.5.9-2.1 1.4h.3c.6 0 1.3.1 1.9.2.1 0 .3 0 .4.1h20.3zm7.5 15.3c0 3.2-.8 6.2-2.2 8.9-.8 1.6-1.9 3.1-3.1 4.3-.1.2-.3.3-.4.4-.5.4-.9.9-.9.9h-2.6c.4-1.2.6-2.5.8-3.7.1-.9.2-1.9.2-2.9 0-7.7-3.7-14.6-9.5-18.9h14.5c1.9 3.1 3.2 6.9 3.2 11zm19.3 39.7l-7.3 5.8c.1.8.1 1.6.2 2.4v.3c0 1.8-.2 3.5-.6 5.1-.2.7-.3 1.4-.6 2.1-.2.5-.3 1-.5 1.5.2-.1.4-.2.5-.4 1.1-.8 2.1-1.6 3-2.6 1.2-1.3 2.3-2.8 3.1-4.3 1.4-2.7 2.2-5.7 2.2-8.9v-1zM192.9 114c.4 0 .7.1 1.1.2v8.1c-.7-.6-1.5-1.1-2.3-1.6-3-1.9-6.4-3.1-10.1-3.4-.4 0-.7 0-1.1-.1h-.4l1.5-.9c2.7-1.5 5.9-2.4 9.2-2.4h.8c.3 0 .7 0 1 .1h.3zm8.8 19.3c-.8-2.4-1.9-4.6-3.4-6.5v-11.4h.1c.6.2 1.1.5 1.7.8s1.2.7 1.7 1.1a6.42 6.42 0 0 1 1.3 1c.5.4.9.8 1.3 1.2 2.1 2.1 3.8 4.8 4.7 7.8l-7.4 6zm-11.3-8.3c-2.9-2-6.3-3.3-10.1-3.5-.4 0-.7-.1-1.1-.1-2.4 0-4.7.5-6.9 1.3-.7.3-1.4.6-2.1 1-.8.4-1.6.9-2.3 1.5-.6.5-1.3 1-1.8 1.5l-.7.7c-1.6 1.7-3 3.7-3.9 5.9-.3.8-.6 1.6-.8 2.5H194v-7.6c-1.1-1.2-2.3-2.2-3.6-3.2zm8.2 15.7c0 .7 0 1.4-.1 2.1 0 .4-.1.8-.2 1.2v-6.5c.2 1 .3 2.1.3 3.2zm-8.2-.5h3.5v13c-1 1.2-2.2 2.3-3.5 3.3-2.9 2-6.3 3.3-10.1 3.5h-1.1c-3.3 0-6.3-.8-9-2.2-3.7-2-6.6-5.1-8.4-8.8-.2-.3-.3-.7-.4-1s-.3-.6-.4-1c-.4-1.1-.7-2.3-.8-3.5-.1-.9-.2-1.8-.2-2.7v-.5h30.4zm-124.1 7.2c-.3.9-.6 1.8-1 2.7.6-.2 1.2-.4 1.7-.6-.2-.7-.5-1.4-.7-2.1zm6.2-24.1c.1 0 .2 0 .2-.1.2-.1.4-.1.7-.2-.2.1-.3.3-.5.4-.1.1-.3.2-.4.4v-.5zm-4.3.6v5.6c-.7 1.2-1.2 2.5-1.6 3.8-.1.2-.2.5-.2.7-.1-.2-.1-.5-.2-.7-1.1-3.2-2.8-6.2-5.1-8.6-.5-.5-.9-1-1.4-1.4-.3-.3-.6-.5-.8-.7.7.3 1.5.5 2.3.7h.1c1.8.4 3.7.7 5.6.7.3 0 .8 0 1.3-.1zm-19.2-8c-.7.5-1.3 1-1.9 1.6 1.3.2 2.6.5 3.8.9.3.1.5.2.8.2-.3-.2-.5-.5-.8-.7-.6-.7-1.3-1.3-1.9-2zm23.5 7.4h0c.1-.1.2-.1.2-.1m0 0c.2-.1.4-.1.7-.2-.2.1-.3.3-.5.4m0 .1c-.1.1-.3.2-.4.4v-.5m0-.1h0c.1-.1.2-.1.2-.1m0 0c.2-.1.4-.1.7-.2-.2.1-.3.3-.5.4m0 .1c-.1.1-.3.2-.4.4v-.5m63.7-16.4c0-.1 0-.1-.1-.2l.1.2zm20.5 27.1c.1-.2.2-.5.2-.7h-.5c.2.2.3.4.3.7zM138 117.5l1.7.3v-1.4c-.6.4-1.2.7-1.7 1.1zm-48.5-.3c.4 0 .8 0 1.2.1v-.8c-.4.2-.8.4-1.2.7z" fill="#e35500"/><g fill="#f0ab00"><path d="M209.2 127.4l-7.4 5.9v-15.9a6.42 6.42 0 0 1 1.3 1c.5.4.9.8 1.3 1.2 2.2 2.1 3.9 4.8 4.8 7.8zm.9 4.8l-7.3 5.8.2 2.4v.3c0 1.8-.2 3.5-.6 5.1-.2.7-.3 1.4-.6 2.1-.2.5-.3 1-.5 1.5.2-.1.4-.2.5-.4 1.1-.8 2.1-1.6 3-2.6 1.2-1.3 2.3-2.8 3.1-4.3 1.4-2.7 2.2-5.7 2.2-8.9v-1zm-46.9-8.6c-1.1.2-2.3.3-3.4.4v3.7c.9-1.5 2.1-2.9 3.4-4.1zm-27-46.4v-1.1c.6.3 1.1.7 1.6 1.1h-1.6zm0 16.9c1.1-4.1 3.4-7.7 6.4-10.6l-1.3-1.9h-5.1v12.5zm46.4-16.9v-.5c.2.2.5.3.7.5h-.7zm1.5 29.8s.5-.4.9-.9l.4-.4c1.2-1.3 2.3-2.8 3.1-4.3 1.4-2.7 2.2-5.7 2.2-8.9 0-4.1-1.3-7.8-3.4-10.9h-4.8V107h1.6zm-117 42.5c-.6.2-1.1.4-1.7.6.4-.9.7-1.8 1-2.7.1.7.4 1.4.7 2.1zm-.6-16.1c.4-1.3 1-2.6 1.6-3.8V124h-1.4c-1.9 0-3.8-.2-5.6-.7H61v1.5c2.3 2.5 4 5.4 5.1 8.6h.4zm0 0c-.1.2-.2.5-.2.7-.1-.2-.1-.5-.2-.7h.4zm-3.6 6.8v.5c0 6.8-3.5 12.7-8.8 16.2v-16.7h8.8zm-.6-4.3c-1.2-4.7-4.2-8.7-8.2-11.3v11.3h8.2zm37.3 20.8v-16.6h8.6v.5a19.34 19.34 0 0 1-8.6 16.1zm7.9-20.8c-1.2-4.6-4.1-8.6-8-11.2v11.2h8zm45.8 4.3v.5c0 6.6-3.3 12.4-8.4 15.9v-16.4h8.4zm-.6-4.3c-1.2-4.5-4-8.4-7.7-11v11h7.7zm45.9 4.8c0-1.1-.1-2.2-.3-3.2v6.5c.1-.4.1-.8.2-1.2 0-.7.1-1.4.1-2.1zm-4.6-12.4v7.6h-3.5V125c1.2 1 2.4 2 3.5 3.3zm-3.6 28.1c1.3-.9 2.5-2 3.5-3.3v-13h-3.5v16.3zM76.9 111.3h5.7c-.1.1-.1.2-.2.3a18.48 18.48 0 0 1-3.6 3.8c-.6.5-1.2.9-1.9 1.3v-5.4zm0-27.2V107h7.9c.8-2.1 1.2-4.3 1.2-6.6 0-6.9-3.7-12.9-9.1-16.3zm45.8 27.2h5.9c-.1.1-.1.2-.2.3a18.48 18.48 0 0 1-3.6 3.8c-.7.5-1.4 1-2.1 1.4v-5.5zm0-27.4V107h8.2c.2-.6.4-1.3.6-1.9v-9.3c-1.3-5-4.5-9.3-8.8-11.9zm48.1 31.6l-1.2.9c-.4.3-.8.5-1.2.7v-5.7h6.2c-.1.1-.1.2-.2.3a18.48 18.48 0 0 1-3.6 3.8zm6.1-8.5c.1-.2.2-.5.3-.7.6-1.8.9-3.8.9-5.9 0-7.1-3.9-13.3-9.6-16.6V107h8.4zm-58.7 16.3c-.5.1-1.1.2-1.7.3.2.3.3.6.5.9l1.2-1.2zM90.4 77.2v-.8c.4.2.7.5 1.1.8h-1.1zm0 16c1.2-3.7 3.2-6.9 5.9-9.5l-1.4-2.1h-4.5v11.6zm0 0c1.2-3.7 3.2-6.9 5.9-9.5l-1.4-2.1h-4.5v11.6zm-17.9 30.1h0c.1-.1.2-.1.2-.1.2-.1.4-.1.7-.2-.2.1-.3.3-.5.4-.1.1-.3.2-.4.4v-.5"/><path d="M89.8 105.4l.4 1.6h-.8l.4-1.6zm.6-28.2v-.8c-2.9-1.9-6.3-3.1-10.1-3.2v4h10.1zm0 4.3v11.7l-.6 2.2c-1.2-5.6-4.5-10.5-9-13.9h9.6zm82.1-4.3v-3.9h1.1l1.8.3h.1c1.2.3 2.4.6 3.6 1.1.6.2 1.1.5 1.7.8s1.2.7 1.8 1.2v.5h-10.1zm8.9 29.8h1.1V81.5h-9.7c5.8 4.3 9.5 11.2 9.5 18.9 0 1-.1 1.9-.2 2.9 0 1.3-.3 2.5-.7 3.7zM54.1 156.9c-2.9 1.9-6.4 3-10.1 3.1v-19.8h10.1v16.7zm0-21v-11.3c-.5-.3-1-.6-1.6-.9-1.5-.8-3.1-1.4-4.8-1.7-1.2-.3-2.4-.4-3.7-.4V136h10.1zm45.5 20.8c-2.9 1.9-6.3 3.1-10.1 3.2v-19.8h10.1v16.6zm0-20.8v-11.2c-2.9-1.9-6.3-3.1-10.1-3.2v14.4h10.1zm45.4 20.7c-2.7 1.8-5.8 3-9.2 3.3v-19.7h9.2v16.4zm0-20.7v-11c-2.7-1.8-5.8-3-9.2-3.3v14.3h9.2zm56.7-2.6c-.8-2.4-1.9-4.6-3.4-6.5v-11.4h.1c.6.2 1.1.5 1.7.8s1.2.7 1.7 1.1l-.1 16zm-9-19.3c-.3 0-.7 0-1-.1v6.7c.8.5 1.5 1 2.3 1.6v-8.1c-.4-.1-.7-.1-1.1-.2-.1.1-.1.1-.2.1zm-2.3 26.2v16.2c-2.9 2-6.3 3.3-10.1 3.5v-19.7h10.1zm-10-18.7v14.3h10.1V125c-2.9-2-6.4-3.3-10.1-3.5zm-107.9-2.7v-7.5h4.4v5.4a19.68 19.68 0 0 1-4.4 2.1zM68.2 107V81.5h-1.4V107h1.4zm4.3-24.9V107h4.4V84.1c-1.4-.8-2.9-1.5-4.4-2zm-5.7 37.6c.5 0 .9 0 1.4-.1v-8.3h-1.4v8.4zm55.9-2.8c-2.9 1.7-6.3 2.8-9.9 2.8h-.2v-8.3h10.1v5.5zm0-9.9V83.9c-1.9-1.2-4-2-6.3-2.4h-3.7V107h10zm45.8 10.1c-2.8 1.7-6.1 2.6-9.6 2.6h-.4v-8.3h10.1v5.7zm0-10.1V83.8c-1.9-1.1-3.9-1.9-6.1-2.3h-4V107h10.1zm-57.7 16.9a23.76 23.76 0 0 1-3.7-.6c-1.4-.3-2.8-.8-4.1-1.4a11.51 11.51 0 0 1 1.7 1.4c2.6 2.4 4.7 5.4 6 8.7v-8.1zm25-18.3v-.2c.1.5.2.9.4 1.4v.2h-.4v-1.4zm-4.4-19.5v-4.5h-4.6c1.8 1.2 3.3 2.8 4.6 4.5zm-5.3-8.9v-4c3.7 0 7.1 1.1 10.1 2.9v1.1h-10.1zm10.1 4.3v12.6c-.1.4-.3.9-.4 1.3V81.5h.4zm0 25.5c0-.1 0-.1-.1-.2l.1.2zm23.6 16.9v3.7c-1.2 1.8-2.1 3.7-2.8 5.7-.1.2-.2.5-.2.7-.1-.2-.1-.5-.2-.7-1.3-3.9-3.6-7.3-6.5-10.1-.1-.1-.2-.2-.3-.2v-.9c1.1.5 2.3.9 3.5 1.2 1.8.4 3.7.7 5.6.7.2 0 .5 0 .9-.1zm-3.1 23.5c-.4 1.4-1 2.8-1.6 4.1 0 .1-.1.1-.1.2a13.9 13.9 0 0 0 2.8-1.2c-.1-.1-.1-.3-.2-.4-.3-1-.6-1.9-.9-2.7z" opacity=".7"/><path d="M191.7 114v6.7c-3-1.9-6.4-3.1-10.1-3.4v-.9c2.7-1.5 5.9-2.4 9.2-2.4.4-.1.6 0 .9 0zm-80.4 19.4c.1.2.2.5.2.7.1-.2.1-.5.2-.7 1.1-3.3 2.9-6.3 5.3-8.8-.2-.3-.3-.6-.5-.9-1.2.2-2.5.3-3.8.3-.7 0-1.3 0-2-.1v8.1c.3.5.4.9.6 1.4zm-20.6-16.2a22.05 22.05 0 0 1 8 2.1c-1.3-1-2.6-2.1-3.7-3.4-.3-.3-.5-.6-.8-1-1.3.4-2.5.9-3.6 1.5v.8zm50.4-1.3l-.1-.1c-.5.2-.9.4-1.4.7v1.4c3.8.9 7.2 2.7 10.1 5.3v-.9c-3.3-1.6-6.3-3.7-8.6-6.4zm-25-38.8c.2 0 .5.1.7.1h9.3v-4c-3.3 0-6.3.8-9 2.3l-1 .6v1zm-82.1 47v11.7h10.1v-14.4h-.3c-3.6.1-6.9 1.1-9.8 2.7zm10.1 35.8h-.3a18.85 18.85 0 0 1-9.7-2.7v-17.1h10.1v19.8zm45.4-19.7H79.4v17.3c2.8 1.6 6 2.5 9.5 2.5h.6v-19.8zm-10.1-4.3V124c2.8-1.6 6-2.5 9.5-2.5h.6v14.4H79.4zm52 0v-14.2c-2.3.3-4.6 1.1-6.6 2.2v12h6.6zm0 23.9c-2.3-.3-4.6-1.1-6.6-2.2v-17.4h6.6v19.6zm38.9-19.6v17.5c2.7 1.4 5.7 2.2 9 2.2h1.1v-19.7h-10.1zm10.1-18.7v14.3h-10.1v-12.1c.7-.4 1.4-.7 2.1-1 2.1-.8 4.5-1.3 6.9-1.3.4.1.7.1 1.1.1zM56.8 84v23h10.1V81.5h-3.8c-1.3.3-2.6.7-3.8 1.2-1 .4-1.8.8-2.5 1.3zm0 27.3h10.1v8.3h-.1c-3.7 0-7.1-1-10-2.8v-5.5zm45.8-4.3h10.1V81.5h-3.6c-1.2.2-2.4.6-3.5 1-.1 0-.2.1-.3.1-1 .4-1.9.9-2.7 1.4v23zm10 12.7c-3.7 0-7.1-1.1-10.1-3v-5.4h10.1v8.4zm35.8-35.4V107h10.1V81.5h-3.3c-1.3.3-2.6.6-3.7 1.1-1.2.5-2.2 1.1-3.1 1.7zm10 35.4c-3.7-.1-7.1-1.2-10.1-3.1v-5.2h10.1v8.3zm4.1-44.1h0v1.6c.1 0 .3 0 .4.1h9.6v-3.9h-.9c-3.3-.2-6.4.7-9.1 2.2h0zm-82.8-2.4c-2.8 0-5.4.6-7.8 1.7-.6.3-1.1.5-1.6.8h0v1.4c.2 0 .3.1.5.1h9.6v-4h-.7zm-21 49.4c.3.2.6.5.8.7.5.5 1 .9 1.4 1.4v-1.5c-.7-.1-1.4-.3-2.2-.6zm-7.8-4.3v-.5c.3.2.5.5.8.7-.2 0-.5-.1-.8-.2zm60.6 29.1c.1.4.2.7.3 1.1-.3.2-.6.5-1 .7.3-.7.5-1.2.7-1.8z" opacity=".4"/></g><path d="M235.5 56.4V55H40.1v.2l-35.7 22 .1.1V172h2.7v11.2H32l.1.1L45.9 172l-.1-.1h123.8v11.2h24.8v-.1l.1.1 11.9-9.7h.1v-8.7l5.5-4.8h9.8l9.3-7.5-.1-.1h.2v-9.1l3.9-3.3h.3l.1-83.5zm-62.6 25.1h14.5c2.2 3.1 3.4 6.9 3.4 10.9 0 3.2-.8 6.2-2.2 8.9-.8 1.6-1.9 3.1-3.1 4.3-.1.2-.3.3-.4.4l-.9.9h-2.6c.4-1.2.6-2.5.8-3.7.1-.9.2-1.9.2-2.9-.2-7.6-4-14.5-9.7-18.8zM157 133.4c-.1.2-.2.5-.2.7-.1-.2-.1-.5-.2-.7-1.3-3.9-3.6-7.3-6.5-10.1-.1-.1-.2-.2-.3-.2-2.8-2.5-6.3-4.3-10.1-5.3-.5-.1-1.1-.2-1.7-.3.5-.4 1.1-.7 1.7-1 .4-.2.9-.5 1.4-.7l.1.1c2.3 2.7 5.3 4.8 8.6 6.2 1.1.5 2.3.9 3.5 1.2 1.8.4 3.7.7 5.6.7h.9c1.2 0 2.3-.2 3.4-.4-1.3 1.2-2.5 2.6-3.4 4.1-1.2 1.7-2.2 3.6-2.8 5.7zm.8 17a13.9 13.9 0 0 1-2.8 1.2c0-.1.1-.1.1-.2.7-1.3 1.2-2.6 1.6-4.1l.9 2.6c.1.2.2.3.2.5zM145 124.9c3.8 2.6 6.5 6.5 7.7 11h-16.9v-14.3c3.4.2 6.5 1.4 9.2 3.3zm-9.2-11.1h0l.1-.1c-.1 0-.1.1-.1.1zm.4-6.8h-.4v-1.6c.1.5.2.9.4 1.4v.2zm0-12.9c-.1.4-.3.9-.4 1.3V81.5h5.5l1.3 1.9c-3.1 3-5.3 6.6-6.4 10.7zm0-16.9h-19.4c-.2 0-.5-.1-.7-.1-.4-.1-.9-.1-1.3-.2.1-.1.2-.1.3-.2l2-1.2c2.7-1.4 5.8-2.3 9-2.3 3.7 0 7.1 1.1 10.1 2.9.6.3 1.1.7 1.6 1.1h-1.6zm-.4 63h17.5v.5c0 6.6-3.3 12.4-8.4 15.9-2.7 1.8-5.8 3-9.2 3.3v-19.7zm23-20.5h-.4c-3.7-.1-7.1-1.2-10.1-3.1a22.34 22.34 0 0 1-5-4.7c-.1-.2-.2-.3-.3-.5h31.7c-.1.1-.1.2-.2.3a18.48 18.48 0 0 1-3.6 3.8l-1.2.9c-.4.3-.8.5-1.2.7-2.9 1.6-6.2 2.6-9.7 2.6zm9.7-12.7h-27.8c-.8-2.1-1.2-4.3-1.2-6.6 0-6.4 3.2-12.1 8-15.6.3-.2.5-.4.8-.5.9-.6 1.9-1.2 3-1.6 1.2-.5 2.4-.9 3.7-1.1h7.3c2.2.4 4.2 1.2 6.1 2.3 5.7 3.3 9.6 9.5 9.6 16.6 0 2-.3 4-.9 5.9-.1.3-.2.5-.3.7h-8.3zm14.1-29.8h-19.7c-.1 0-.3 0-.4-.1-.6-.1-1.3-.2-1.9-.2h-.3c.7-.5 1.4-1 2.1-1.4 2.7-1.5 5.8-2.3 9.1-2.3h2l1.8.3h.1c1.2.3 2.4.6 3.6 1.1.6.2 1.1.5 1.7.8s1.2.7 1.8 1.2c.2.2.5.3.7.5h-.6zm-74.9-18h59.7v10a22.14 22.14 0 0 0-10.8 5.1s-2.4 2.1-3 2.9H144a23.28 23.28 0 0 0-17.9-8.3c-5.7 0-10.8 2-14.9 5.3h0l-2 1.8-1.2 1.1h-.2V59.2zm-62.9 0h58.6v18h-5.7c-4-4.7-9.7-7.8-16.2-8.2-.6 0-1.2-.1-1.8-.1-3.5 0-6.8.8-9.8 2.1-1.8.8-3.4 1.8-4.9 3-.8.6-1.6 1.4-2.3 2.1l-1 1H44.8V59.2zm66.9 74.2c-.1.2-.2.5-.2.7-.1-.2-.1-.5-.2-.7-.1-.5-.3-.9-.5-1.3-1.3-3.3-3.4-6.3-6-8.7a11.51 11.51 0 0 0-1.7-1.4c1.3.6 2.7 1.1 4.1 1.4a21.98 21.98 0 0 0 3.7.6c.7.1 1.3.1 2 .1a24.33 24.33 0 0 0 3.8-.3l1.7-.3-1.2 1.2c-2.5 2.3-4.4 5.3-5.5 8.7zm.2 15c-.3.2-.6.5-1 .7l.6-1.8c.1.4.2.8.4 1.1zm-35-37.1h5.7c-.1.1-.1.2-.2.3a18.48 18.48 0 0 1-3.6 3.8c-.6.5-1.2.9-1.9 1.3-1.4.8-2.8 1.5-4.4 2v-7.5h4.4zm-4.4-4.3V82.2c1.5.5 3 1.2 4.4 2 5.5 3.4 9.1 9.4 9.1 16.3 0 2.3-.4 4.5-1.2 6.6H72.5zm.2 16.2c.2-.1.4-.1.7-.2-.2.1-.3.3-.5.4-.1.1-.3.2-.4.4v-.5c.1 0 .1-.1.2-.1zm6.7.8c2.8-1.6 6-2.5 9.5-2.5h.6c3.7.1 7.2 1.3 10.1 3.2 3.9 2.6 6.8 6.5 8 11.2H72.4v-5.1c1.8-2.9 4.2-5.2 7-6.8zm9.9-17c.2-.5.3-1.1.4-1.6.1.5.3 1.1.4 1.6h-.8zm-9.9 33.2h28.8v.5c0 6.7-3.4 12.6-8.6 16-2.9 1.9-6.3 3.1-10.1 3.2h-.6c-3.4 0-6.7-.9-9.5-2.5-2.9-1.6-5.3-4-7-6.8v-10.5h7zm33.4-20.5h-.2c-3.7 0-7.1-1.1-10.1-3-2-1.3-3.8-3-5.3-4.9-.1-.2-.2-.3-.3-.5h31.7c-.1.1-.1.2-.2.3a18.48 18.48 0 0 1-3.6 3.8c-.7.5-1.4 1-2.1 1.4-2.9 1.9-6.3 2.9-9.9 2.9zm-14.1-.4c-2.5-1.1-5.2-1.8-8-2.1-.4 0-.8 0-1.2-.1.4-.2.8-.5 1.2-.7 1.1-.6 2.3-1.1 3.6-1.5.3.3.5.7.8 1 1 1.3 2.3 2.4 3.6 3.4zm-8.3-26.1l-.6 2.2c-1.2-5.6-4.5-10.5-9-13.9h14.1l1.4 2.1c-2.7 2.7-4.8 6-5.9 9.6zM44.8 81.5h7.9c-1 .8-2 1.6-2.8 2.5h-5v-2.5zm0 6.9h1.7c-.7 1.1-1.2 2.2-1.7 3.4v-3.4zm-.7 33.1c1.3 0 2.5.2 3.7.4 1.7.4 3.3 1 4.8 1.7.5.3 1.1.6 1.6.9 4 2.6 7 6.6 8.2 11.3H25.1c1.3-5 4.5-9.2 8.9-11.7 2.9-1.7 6.2-2.7 9.7-2.7.1.1.2.1.4.1zm3-4.1c.6-.6 1.2-1.1 1.9-1.6.6.7 1.3 1.4 1.9 2 .3.2.5.5.8.7-.3-.1-.5-.2-.8-.2-1.2-.4-2.5-.7-3.8-.9zm-22.6 22.9v-.1H63v.5c0 6.8-3.5 12.7-8.8 16.2-2.9 1.9-6.4 3-10.1 3.1h-.3a18.85 18.85 0 0 1-9.7-2.7 19.59 19.59 0 0 1-9-12 17.59 17.59 0 0 1-.6-4.6v-.4zm-3.8-4.4H10.5l14.1-9c-1.9 2.6-3.2 5.7-3.9 9zm18.7-18.3l1.1-.7v.5c-.4 0-.7.1-1.1.2zm1.1-10.6H13l27.5-17.4V107zm0-47.1v17.3h-28l28-17.3zM8.8 81.5h31.7v2.9L8.8 104.5v-23zm0 29.8h31.7v.4L8.8 131.8v-20.5zm0 28.9h11.3v.5c0 1 .1 1.9.2 2.9.2 1.6.6 3.2 1.1 4.7.8 2.4 2 4.6 3.5 6.6L8.8 165v-24.8zm19 38.7H11.6V172h16.2v6.9zm4.3-1.2V172h7.1l-7.1 5.7zm36.1-10.1H12.8l.1-.1 15-9.5c4.2 3.8 9.8 6.2 15.9 6.2 7.6 0 14.4-3.7 18.7-9.3 2-.2 3.9-.6 5.7-1.3v14zM65.3 150c.4-.9.7-1.8 1-2.7.2.7.5 1.4.7 2.1-.5.3-1.1.5-1.7.6zm2.9-20.4c-.7 1.2-1.2 2.5-1.6 3.8-.1.2-.2.5-.2.7-.1-.2-.1-.5-.2-.7-1.1-3.2-2.8-6.2-5.1-8.6-.5-.5-.9-1-1.4-1.4-.3-.3-.6-.5-.8-.7.7.3 1.5.5 2.3.7h.1c1.8.4 3.7.7 5.6.7h1.4v5.5zm0-13.9v3.9c-.4 0-.9.1-1.4.1h-.1c-3.7 0-7.1-1-10-2.8-2.3-1.4-4.3-3.3-5.9-5.5h17.4v4.3zm0-21.5V107H48.7c-.8-2.1-1.2-4.3-1.2-6.6 0-6.1 2.9-11.6 7.4-15.1.6-.5 1.2-.9 1.9-1.3.8-.5 1.6-.9 2.4-1.3 1.2-.5 2.5-.9 3.8-1.2h5.2v12.7zm2.1-17.1c-.5-.1-1.1-.1-1.7-.2h-.2c.5-.4 1.1-.7 1.6-1.1.1 0 .1-.1.2-.1h.1a11.94 11.94 0 0 1 1.6-.8c2.4-1.1 5-1.7 7.8-1.7h.6c3.7.1 7.2 1.3 10.1 3.2.4.2.7.5 1.1.8H70.7c-.1 0-.3 0-.4-.1zm61.1 90.5h-59v-10.1c4.2 4.1 10 6.7 16.4 6.7 7.2 0 13.7-3.3 18-8.4 2.4-.8 4.7-1.9 6.8-3.4 3.6 6.3 10.2 10.8 17.7 11.7v3.5zm0-7.8c-2.3-.3-4.6-1.1-6.6-2.2-6-3.3-10-9.6-10-16.9v-.5h16.6v19.6zm0-23.9h-16c1.4-5.2 4.8-9.5 9.4-12 2-1.1 4.2-1.8 6.6-2.2v14.2zm0-30.8c-.2.7-.4 1.3-.6 1.9H94.6c-.8-2.1-1.2-4.3-1.2-6.6 0-6.2 2.9-11.6 7.5-15.2.2-.1.4-.3.5-.4.3-.2.7-.5 1-.7.9-.6 1.8-1 2.7-1.4.1 0 .2-.1.3-.1 1.1-.5 2.3-.8 3.5-1h7.3c2.3.4 4.4 1.3 6.3 2.4 4.3 2.6 7.5 6.8 8.8 11.9v9.2zm0-19c-1.3-1.7-2.9-3.2-4.6-4.5h4.6v4.5zm58.8 92.8H174V172h16.2v6.9zm3.8-11.3h0l-24.3.1h-33.9v-3.4c6.1-.4 11.6-3.2 15.6-7.4 3.1-.3 6-1.2 8.6-2.7 4.3 6.1 11.3 10.2 19.4 10.2 5.5 0 10.6-1.9 14.6-5.1v8.3zm0-14.4c-1 1.2-2.2 2.3-3.5 3.3-2.9 2-6.3 3.3-10.1 3.5h-1.1c-3.3 0-6.3-.8-9-2.2-3.7-2-6.6-5.1-8.4-8.8-.2-.3-.3-.7-.4-1s-.3-.6-.4-1c-.4-1.1-.7-2.3-.8-3.5-.1-.9-.2-1.8-.2-2.7v-.5H194v12.9zm0-17.3h-33.3c.2-.9.5-1.7.8-2.5.9-2.2 2.3-4.2 3.9-5.9l.7-.7c.6-.5 1.2-1.1 1.8-1.5.7-.5 1.5-1 2.3-1.5.7-.4 1.4-.7 2.1-1 2.1-.8 4.5-1.3 6.9-1.3.4 0 .7 0 1.1.1 3.7.2 7.2 1.5 10.1 3.5 1.3.9 2.5 2 3.5 3.2v7.6zm0-13.6c-.7-.6-1.5-1.1-2.3-1.6-3-1.9-6.4-3.1-10.1-3.4-.4 0-.7 0-1.1-.1h-.4l1.5-.9c2.7-1.5 5.9-2.4 9.2-2.4h.8c.3 0 .7 0 1 .1h.2c.4 0 .7.1 1.1.2v8.1zm0-15.3h-3.9c.3-.3.5-.7.8-1 .9-1.2 1.6-2.5 2.2-3.9l.9-2.3v7.2zm0-23h-.4c-.3-.9-.7-1.7-1.1-2.5h1.6V84zm-4.5-6.8a23.57 23.57 0 0 0-13.1-7.8h-.1c-.3-.1-.6-.1-.9-.2-.1 0-.3 0-.4-.1-.3 0-.5-.1-.8-.1-.2 0-.4 0-.6-.1h-1.8v-9.7H227l-28.9 18h-8.6zm14.6 36.5h22.3l-13.7 10.8c-.7-1.7-1.6-3.4-2.6-4.9-1.6-2.3-3.6-4.3-6-5.9zm-1.2 26.7c0-.8-.1-1.6-.2-2.4l7.3-5.8c0 .3.1.7.1 1 0 3.2-.8 6.2-2.2 8.9-.8 1.6-1.9 3.1-3.1 4.3-.9 1-1.9 1.8-3 2.6-.2.1-.4.2-.5.4.2-.5.4-1 .5-1.5l.6-2.1c.4-1.6.6-3.4.6-5.1-.1-.1-.1-.2-.1-.3zm1.6-20.8c2.2 2.2 3.8 4.8 4.8 7.8l-7.4 5.9-.1.1c-.8-2.4-1.9-4.6-3.4-6.5v-11.4h.1c.6.2 1.1.5 1.7.8s1.2.7 1.7 1.1a6.42 6.42 0 0 1 1.3 1c.4.3.8.7 1.3 1.2zm-5.9 21.1c0 .7 0 1.4-.1 2.1 0 .4-.1.8-.2 1.2v-6.5c.2 1 .3 2.1.3 3.2zm-.3-34.4V88.4h28.3l-28.3 17.9zm3.9 65.1l-7.7 6.3V172h3.8l3.9-3.4v2.8zm16-15.7H217l1.2-1v1zm8.9-5.3l-4.5 3.6v-3l4.5-3.9v3.3zm-28.8 15.8v-10.7c4.8-1.6 9-4.7 11.8-8.8.9-1.2 1.6-2.5 2.2-3.9.5-1.1.9-2.2 1.2-3.3h15.7l-30.9 26.7zm32.9-31.1h-16.9c.1-.6.1-1.3.1-2 0-1.4-.1-2.8-.4-4.1l17.2-13.6v19.7zm0-25.7h-29.8l29.8-18.9v18.9zm0-25.4h-32.9v-1.9l32.9-20.5V84z"/></svg>