<svg xmlns="http://www.w3.org/2000/svg" viewBox="0 0 184 184"  xmlns:v="https://vecta.io/nano"><path d="M122.94 36a8 8 0 0 0-14.33-5.79A64 64 0 0 0 37 124.71a8 8 0 0 0 9.64 12.41A63.34 63.34 0 0 0 92 156a64 64 0 0 0 30.94-120zM115 31a4 4 0 1 1-4 4 4 4 0 0 1 4-4zM43 134a4 4 0 1 1 4-4 4 4 0 0 1-4 4zm49 18a59.38 59.38 0 0 1-42.37-17.54A7.87 7.87 0 0 0 51 130a8 8 0 0 0-10.68-7.54A60 60 0 0 1 92 32a60.4 60.4 0 0 1 15.07 1.92A7.83 7.83 0 0 0 107 35a8 8 0 0 0 14.45 4.73A60 60 0 0 1 92 152zm92-91a8 8 0 0 0-8-8h-.64A92 92 0 0 0 20.67 33.89 8 8 0 0 0 11.74 47 92 92 0 0 0 135 173.33a8 8 0 0 0 14-5.33 8.06 8.06 0 0 0-.69-3.25 92.1 92.1 0 0 0 32.38-97.27A8 8 0 0 0 184 61zM17 37a4 4 0 1 1-4 4 4 4 0 0 1 4-4zm124 135a4 4 0 1 1 4-4 4 4 0 0 1-4 4zm4.83-10.38a8 8 0 0 0-12.63 8.15 88 88 0 0 1-117.89-121A7.88 7.88 0 0 0 17 49a8 8 0 0 0 6.66-12.44 88 88 0 0 1 147.9 17.79A8 8 0 0 0 176 69a7.3 7.3 0 0 0 .94-.06A88.24 88.24 0 0 1 180 92a87.26 87.26 0 0 1-34.17 69.62zM176 65a4 4 0 1 1 4-4 4 4 0 0 1-4 4z"/><path d="M109.5 60.83a36 36 0 1 0 18 31.17 35.78 35.78 0 0 0-18-31.17z" fill="#008fd3"/><g fill="#f0ab00"><path d="M73.5,123.17a35.78,35.78,0,0,0,18,4.83V56a35.78,35.78,0,0,0-18,4.83Z" opacity=".4"/><path d="M109.5 123.17V60.83a35.78 35.78 0 0 0-18-4.83v72a35.78 35.78 0 0 0 18-4.83z" opacity=".7"/><path d="M109.5,60.83v62.34a36,36,0,0,0,0-62.34Z"/></g></svg>